<?xml version="1.0" encoding="UTF-8"?>
<svg xmlns="http://www.w3.org/2000/svg" width="64" height="64" viewBox="0 0 64 64">

<defs><radialGradient id="sa1" cx="45%" cy="35%" r="55%"><stop offset="0%" style="stop-color:#fff"/><stop offset="100%" style="stop-color:#c8c8d0"/></radialGradient></defs>
<ellipse cx="32" cy="54" rx="24" ry="6" fill="#b0b0b8" stroke="#888890" stroke-width="2"/>
<path d="M8 54 Q12 28 32 16 Q52 28 56 54 Z" fill="url(#sa1)" stroke="#8888a0" stroke-width="3"/>
<path d="M14 50 Q20 34 32 24 Q38 30 42 38" stroke="#e0e0e8" stroke-width="2" fill="none" opacity=".4"/>
<path d="M22 48 Q28 38 36 32" stroke="#d0d0d8" stroke-width="1.5" fill="none" opacity=".3"/>
<ellipse cx="28" cy="22" rx="5" ry="3" fill="#fff" opacity=".6"/>
<ellipse cx="26" cy="20" rx="2" ry="1.5" fill="#fff" opacity=".8"/>
<circle cx="20" cy="38" r="1.5" fill="#fff" opacity=".4"/>
<circle cx="40" cy="40" r="1" fill="#fff" opacity=".3"/>
<circle cx="32" cy="32" r="1.2" fill="#fff" opacity=".35"/>
<line x1="30" y1="18" x2="34" y2="18" stroke="#fff" stroke-width="2" opacity=".7"/>
<line x1="32" y1="16" x2="32" y2="20" stroke="#fff" stroke-width="2" opacity=".7"/>

</svg>
