<?xml version="1.0" encoding="UTF-8"?>
<svg xmlns="http://www.w3.org/2000/svg" width="64" height="64" viewBox="0 0 64 64">

<defs><linearGradient id="wh1" x1="0%" y1="0%" x2="0%" y2="100%"><stop offset="0%" style="stop-color:#fce96a"/><stop offset="100%" style="stop-color:#d4a017"/></linearGradient><linearGradient id="wh2" x1="0%" y1="0%" x2="0%" y2="100%"><stop offset="0%" style="stop-color:#a8c256"/><stop offset="100%" style="stop-color:#6b8e23"/></linearGradient></defs>
<ellipse cx="32" cy="59" rx="12" ry="3" fill="#000" opacity=".2"/>
<path d="M18 58 Q20 40 22 28" stroke="url(#wh2)" stroke-width="3" fill="none" stroke-linecap="round"/>
<path d="M30 58 Q31 38 32 24" stroke="url(#wh2)" stroke-width="3" fill="none" stroke-linecap="round"/>
<path d="M42 58 Q40 42 38 30" stroke="url(#wh2)" stroke-width="3" fill="none" stroke-linecap="round"/>
<ellipse cx="30" cy="50" rx="14" ry="3" fill="#c0392b" stroke="#8b1a1a" stroke-width="2"/>
<ellipse cx="22" cy="20" rx="5" ry="11" fill="url(#wh1)" stroke="#8B6914" stroke-width="2.5" transform="rotate(-8 22 20)"/>
<ellipse cx="32" cy="16" rx="5" ry="12" fill="url(#wh1)" stroke="#8B6914" stroke-width="2.5"/>
<ellipse cx="38" cy="22" rx="5" ry="10" fill="url(#wh1)" stroke="#8B6914" stroke-width="2.5" transform="rotate(8 38 22)"/>
<line x1="22" y1="12" x2="22" y2="28" stroke="#b8960f" stroke-width="2" opacity=".6"/>
<line x1="32" y1="8" x2="32" y2="24" stroke="#b8960f" stroke-width="2" opacity=".6"/>
<line x1="38" y1="14" x2="38" y2="28" stroke="#b8960f" stroke-width="2" opacity=".6"/>
<line x1="22" y1="10" x2="16" y2="4" stroke="#d4a017" stroke-width="1.5" stroke-linecap="round"/>
<line x1="22" y1="10" x2="28" y2="4" stroke="#d4a017" stroke-width="1.5" stroke-linecap="round"/>
<line x1="32" y1="5" x2="26" y2="0" stroke="#d4a017" stroke-width="1.5" stroke-linecap="round"/>
<line x1="32" y1="5" x2="38" y2="0" stroke="#d4a017" stroke-width="1.5" stroke-linecap="round"/>
<ellipse cx="30" cy="12" rx="2" ry="5" fill="#fff4a8" opacity=".4"/>

</svg>
